PathFileType	4	(X/Y/Z)	C:\Users\MAHE\Documents\generic-specific-tibial-stress-mtlb\PublicDataset\P01\Gait\WBDS01static1.trc
DataRate	CameraRate	NumFrames	NumMarkers	Units	OrigDataRate	OrigDataStartFrame	OrigNumFrames
150.000000	150.000000	4	28	mm	150.000000	37	150
Frame#	Time	L.Ankle			L.Ankle.Medial			L.ASIS			L.GTR			L.Heel			L.HF			L.Iliac.Crest			L.Knee			L.Knee.Medial			L.MT1			L.MT2			L.MT5			L.PSIS			L.TT			R.Ankle			R.Ankle.Medial			R.ASIS			R.GTR			R.Heel			R.HF			R.Iliac.Crest			R.Knee			R.Knee.Medial			R.MT1			R.MT2			R.MT5			R.PSIS			R.TT			
		X1	Y1	Z1	X2	Y2	Z2	X3	Y3	Z3	X4	Y4	Z4	X5	Y5	Z5	X6	Y6	Z6	X7	Y7	Z7	X8	Y8	Z8	X9	Y9	Z9	X10	Y10	Z10	X11	Y11	Z11	X12	Y12	Z12	X13	Y13	Z13	X14	Y14	Z14	X15	Y15	Z15	X16	Y16	Z16	X17	Y17	Z17	X18	Y18	Z18	X19	Y19	Z19	X20	Y20	Z20	X21	Y21	Z21	X22	Y22	Z22	X23	Y23	Z23	X24	Y24	Z24	X25	Y25	Z25	X26	Y26	Z26	X27	Y27	Z27	X28	Y28	Z28	

38	0.2466666666666667	691.1211547851563	75.83631896972656	1042.920288085938	709.96826171875	87.01084899902344	1127.633422851563	804.06201171875	955.2059326171875	1085.132446289063	714.9071044921875	880.0699462890625	1040.484375	635.826904296875	47.54893493652344	1083.57177734375	699.2153930664063	432.6298828125	1043.597900390625	716.658935546875	1032.88330078125	1046.912963867188	718.7511596679688	495.1416625976563	1052.8056640625	723.3229370117188	486.5031433105469	1179.32666015625	841.4137573242188	41.08088302612305	1101.693359375	841.8860473632813	35.41450881958008	1072.975952148438	814.6876831054688	28.82400512695313	1021.627624511719	614.4050903320313	1002.650329589844	1194.429931640625	758.6884765625	420.0512084960938	1087.162841796875	689.2313232421875	72.8690185546875	1399.379760742188	705.7733764648438	91.74944305419922	1314.303588867188	807.974853515625	954.0493774414063	1364.402465820313	704.657958984375	888.1239013671875	1405.306274414063	636.8736572265625	49.61091613769531	1349.518432617188	711.158203125	440.2348327636719	1404.154541015625	726.3012084960938	1031.282104492188	1405.609252929688	727.9881591796875	495.8728332519531	1395.14892578125	729.5155029296875	481.8039245605469	1270.411865234375	842.2809448242188	43.32241821289063	1341.930419921875	842.4652709960938	37.98192596435547	1365.06494140625	810.0260009765625	31.5871753692627	1416.221069335938	616.2396240234375	1000.5927734375	1264.421875	767.5701904296875	423.63037109375	1347.652099609375	
39	0.2533333333333334	691.119873046875	75.83699035644531	1042.911376953125	709.9723510742188	87.00617980957031	1127.640625	804.0639038085938	955.2147827148438	1085.15576171875	714.93701171875	880.0784912109375	1040.481567382813	635.8246459960938	47.54932022094727	1083.566772460938	699.22998046875	432.6227722167969	1043.590454101563	716.7177734375	1032.924438476563	1046.935668945313	718.7507934570313	495.1334228515625	1052.7958984375	723.316162109375	486.4644470214844	1179.31298828125	841.4086303710938	41.0783576965332	1101.701171875	841.887451171875	35.41232299804688	1072.970703125	814.6919555664063	28.82224082946777	1021.631103515625	614.4074096679688	1002.664611816406	1194.398681640625	758.70068359375	420.0459289550781	1087.170654296875	689.2254638671875	72.86780548095703	1399.375122070313	705.7911376953125	91.741455078125	1314.3203125	807.9310302734375	954.0553588867188	1364.409057617188	704.6187744140625	888.1224365234375	1405.287231445313	636.8711547851563	49.61639785766602	1349.509033203125	711.1485595703125	440.2364501953125	1404.156005859375	726.3045654296875	1031.330200195313	1405.58154296875	727.97998046875	495.8695068359375	1395.154663085938	729.529296875	481.8067932128906	1270.415161132813	842.2803955078125	43.33319854736328	1341.947875976563	842.4649047851563	37.99038314819336	1365.064086914063	810.02392578125	31.59586524963379	1416.227294921875	616.2332153320313	1000.593017578125	1264.395385742188	767.5697021484375	423.6325073242188	1347.663330078125	
40	0.26	691.1172485351563	75.83283233642578	1042.91162109375	709.9696044921875	87.01006317138672	1127.638427734375	804.09765625	955.2233276367188	1085.171875	714.950927734375	880.0770263671875	1040.472778320313	635.8231201171875	47.54579925537109	1083.557739257813	699.2323608398438	432.6270141601563	1043.586303710938	716.8029174804688	1032.955078125	1046.942504882813	718.757568359375	495.1339721679688	1052.792358398438	723.3191528320313	486.4734191894531	1179.31103515625	841.4156494140625	41.08066558837891	1101.712768554688	841.8838500976563	35.40780639648438	1072.983276367188	814.6865844726563	28.82081604003906	1021.638366699219	614.4010620117188	1002.672119140625	1194.37255859375	758.7050170898438	420.0461730957031	1087.182373046875	689.2273559570313	72.86549377441406	1399.376342773438	705.798828125	91.74333190917969	1314.305908203125	807.8958129882813	954.0686645507813	1364.403442382813	704.586181640625	888.1282348632813	1405.266845703125	636.875244140625	49.60441207885742	1349.515502929688	711.1483154296875	440.2371520996094	1404.154418945313	726.3084716796875	1031.375610351563	1405.5322265625	727.9644775390625	495.8646240234375	1395.158569335938	729.5363159179688	481.8060607910156	1270.41064453125	842.2695922851563	43.33258438110352	1341.952392578125	842.46337890625	37.99859619140625	1365.072387695313	810.0322875976563	31.59234809875488	1416.227661132813	616.2242431640625	1000.603149414063	1264.368896484375	767.5621337890625	423.6311340332031	1347.668212890625	
41	0.2666666666666667	691.1159057617188	75.83125305175781	1042.908935546875	709.9695434570313	87.00694274902344	1127.636108398438	804.1117553710938	955.2450561523438	1085.199829101563	714.982421875	880.08349609375	1040.468017578125	635.8304443359375	47.54448699951172	1083.559448242188	699.2435302734375	432.626953125	1043.583618164063	716.8992919921875	1032.99560546875	1046.976440429688	718.775390625	495.1239318847656	1052.79052734375	723.3046875	486.487548828125	1179.325073242188	841.4129028320313	41.07682418823242	1101.72314453125	841.8912963867188	35.40943908691406	1072.981689453125	814.6922607421875	28.82668113708496	1021.640258789063	614.4056396484375	1002.684204101563	1194.340209960938	758.7079467773438	420.0409240722656	1087.190673828125	689.227783203125	72.87084197998047	1399.375854492188	705.8051147460938	91.74174499511719	1314.309814453125	807.8732299804688	954.0690307617188	1364.397705078125	704.5569458007813	888.1268310546875	1405.24951171875	636.8750610351563	49.60951614379883	1349.510986328125	711.1458129882813	440.234130859375	1404.151611328125	726.3341064453125	1031.40966796875	1405.498291015625	727.9580078125	495.8675231933594	1395.14697265625	729.5337524414063	481.8096313476563	1270.41064453125	842.277099609375	43.33783721923828	1341.958374023438	842.461669921875	38.00457382202148	1365.06201171875	810.0206909179688	31.60022735595703	1416.224487304688	616.2125854492188	1000.630187988281	1264.3720703125	767.5703125	423.6292724609375	1347.67236328125	
